<svg width="100" height="100" viewBox="0 0 100 100" fill="none" xmlns="http://www.w3.org/2000/svg">
<rect width="100" height="100" fill="black"/>
<path d="M31.456 73.64C28.64 73.64 26.1867 73.1067 24.096 72.04C22.048 70.9733 20.448 69.4373 19.296 67.432C18.1867 65.384 17.632 62.9733 17.632 60.2V39.08C17.632 36.264 18.1867 33.8533 19.296 31.848C20.448 29.8427 22.048 28.3067 24.096 27.24C26.1867 26.1733 28.64 25.64 31.456 25.64C34.272 25.64 36.704 26.1947 38.752 27.304C40.8 28.3707 42.3787 29.9067 43.488 31.912C44.5973 33.9173 45.152 36.3067 45.152 39.08H39.392C39.392 36.4347 38.688 34.408 37.28 33C35.9147 31.5493 33.9733 30.824 31.456 30.824C28.9387 30.824 26.9547 31.528 25.504 32.936C24.096 34.344 23.392 36.3707 23.392 39.016V60.2C23.392 62.8453 24.096 64.8933 25.504 66.344C26.9547 67.7947 28.9387 68.52 31.456 68.52C33.9733 68.52 35.9147 67.7947 37.28 66.344C38.688 64.8933 39.392 62.8453 39.392 60.2V54.44H29.92V49.192H45.152V60.2C45.152 62.9307 44.5973 65.32 43.488 67.368C42.3787 69.3733 40.8 70.9307 38.752 72.04C36.704 73.1067 34.272 73.64 31.456 73.64ZM54.215 79.4V74.6H84.935V79.4H54.215Z" fill="#05B805"/>
</svg>
